<?xml version="1.0" encoding="UTF-8"?>
<!DOCTYPE svg PUBLIC "-//W3C//DTD SVG 1.1//EN" "http://www.w3.org/Graphics/SVG/1.1/DTD/svg11.dtd">
<svg xmlns="http://www.w3.org/2000/svg" version="1.1" width="600px" height="600px" style="shape-rendering:geometricPrecision; text-rendering:geometricPrecision; image-rendering:optimizeQuality; fill-rule:evenodd; clip-rule:evenodd" xmlns:xlink="http://www.w3.org/1999/xlink">
<g><path style="opacity:1" fill="#000000" d="M -0.5,-0.5 C 199.5,-0.5 399.5,-0.5 599.5,-0.5C 599.5,199.5 599.5,399.5 599.5,599.5C 399.5,599.5 199.5,599.5 -0.5,599.5C -0.5,399.5 -0.5,199.5 -0.5,-0.5 Z"/></g>
<g><path style="opacity:1" fill="#fde200" d="M 504.5,204.5 C 504.5,221.833 504.5,239.167 504.5,256.5C 478.833,256.5 453.167,256.5 427.5,256.5C 427.83,240.991 427.496,225.658 426.5,210.5C 420.632,192.229 408.298,185.395 389.5,190C 380.444,194.058 374.611,200.891 372,210.5C 371.333,269.167 371.333,327.833 372,386.5C 379.992,408.169 394.492,414.003 415.5,404C 421.152,399.861 424.652,394.361 426,387.5C 426.169,371.661 426.669,355.995 427.5,340.5C 453.167,340.5 478.833,340.5 504.5,340.5C 504.5,356.5 504.5,372.5 504.5,388.5C 500.513,430.98 479.179,461.146 440.5,479C 393.689,496.004 353.189,486.504 319,450.5C 305.223,433.603 296.89,414.27 294,392.5C 293.333,329.833 293.333,267.167 294,204.5C 302.615,153.552 332.115,122.386 382.5,111C 436.443,106.045 474.943,127.878 498,176.5C 501.746,185.484 503.913,194.817 504.5,204.5 Z"/></g>
<g><path style="opacity:1" fill="#fde200" d="M 250.5,115.5 C 253.354,138.476 256.02,161.476 258.5,184.5C 258.5,185.833 258.5,187.167 258.5,188.5C 227.995,188.169 197.662,188.502 167.5,189.5C 167.5,213.833 167.5,238.167 167.5,262.5C 191.833,262.5 216.167,262.5 240.5,262.5C 240.5,286.833 240.5,311.167 240.5,335.5C 215.833,335.5 191.167,335.5 166.5,335.5C 166.169,360.339 166.502,385.006 167.5,409.5C 197.833,409.5 228.167,409.5 258.5,409.5C 256.217,434.118 253.217,458.618 249.5,483C 197.501,483.5 145.501,483.667 93.5,483.5C 93.5,419.167 93.5,354.833 93.5,290.5C 94.499,232.336 94.8324,174.002 94.5,115.5C 146.5,115.5 198.5,115.5 250.5,115.5 Z"/></g>
<g><path style="opacity:1" fill="#050401" d="M 126.5,142.5 C 137.812,141.978 142.645,147.311 141,158.5C 137.867,164.327 133.034,166.493 126.5,165C 120.092,161.677 117.925,156.511 120,149.5C 121.694,146.642 123.861,144.309 126.5,142.5 Z"/></g>
<g><path style="opacity:1" fill="#090701" d="M 209.5,142.5 C 220.391,141.888 225.224,146.888 224,157.5C 221.105,164.368 215.938,166.868 208.5,165C 198.852,157.057 199.185,149.557 209.5,142.5 Z"/></g>
<g><path style="opacity:1" fill="#090701" d="M 366.5,142.5 C 377.992,142.81 382.492,148.477 380,159.5C 376.565,164.794 371.732,166.627 365.5,165C 359.092,161.677 356.925,156.511 359,149.5C 360.742,146.254 363.242,143.921 366.5,142.5 Z"/></g>
<g><path style="opacity:1" fill="#070501" d="M 435.5,142.5 C 448.87,143.566 452.703,150.232 447,162.5C 439.248,167.494 432.915,166.161 428,158.5C 425.965,150.907 428.465,145.573 435.5,142.5 Z"/></g>
<g><path style="opacity:1" fill="#aa9800" d="M 250.5,115.5 C 198.5,115.5 146.5,115.5 94.5,115.5C 94.8324,174.002 94.499,232.336 93.5,290.5C 93.5,231.833 93.5,173.167 93.5,114.5C 146.003,114.168 198.336,114.501 250.5,115.5 Z"/></g>
<g><path style="opacity:1" fill="#2d2802" d="M 258.5,184.5 C 259.451,185.919 259.784,187.585 259.5,189.5C 228.833,189.5 198.167,189.5 167.5,189.5C 197.662,188.502 227.995,188.169 258.5,188.5C 258.5,187.167 258.5,185.833 258.5,184.5 Z"/></g>
<g><path style="opacity:1" fill="#050400" d="M 327.5,206.5 C 341.565,205.38 346.399,211.38 342,224.5C 335.38,230.062 329.047,229.728 323,223.5C 320.052,216.612 321.552,210.946 327.5,206.5 Z"/></g>
<g><path style="opacity:1" fill="#070501" d="M 461.5,206.5 C 474.183,205.674 479.017,211.341 476,223.5C 467.655,232.098 460.655,231.098 455,220.5C 454.181,214.471 456.347,209.804 461.5,206.5 Z"/></g>
<g><path style="opacity:1" fill="#060401" d="M 125.5,215.5 C 137.531,213.726 142.698,218.726 141,230.5C 137.903,237.132 132.736,239.299 125.5,237C 123.714,236.215 122.214,235.049 121,233.5C 117.88,226.148 119.38,220.148 125.5,215.5 Z"/></g>
<g><path style="opacity:1" fill="#a89501" d="M 504.5,204.5 C 505.497,221.992 505.83,239.659 505.5,257.5C 479.167,257.5 452.833,257.5 426.5,257.5C 426.5,241.833 426.5,226.167 426.5,210.5C 427.496,225.658 427.83,240.991 427.5,256.5C 453.167,256.5 478.833,256.5 504.5,256.5C 504.5,239.167 504.5,221.833 504.5,204.5 Z"/></g>
<g><path style="opacity:1" fill="#060401" d="M 126.5,287.5 C 137.812,286.978 142.645,292.311 141,303.5C 137.867,309.327 133.034,311.493 126.5,310C 120.092,306.677 117.925,301.511 120,294.5C 121.694,291.642 123.861,289.309 126.5,287.5 Z"/></g>
<g><path style="opacity:1" fill="#070501" d="M 200.5,287.5 C 210.515,287.017 215.348,291.684 215,301.5C 212.442,308.866 207.275,311.699 199.5,310C 189.874,301.959 190.208,294.459 200.5,287.5 Z"/></g>
<g><path style="opacity:1" fill="#080601" d="M 329.5,287.5 C 341.044,287.856 345.544,293.523 343,304.5C 338.803,310.471 333.303,311.971 326.5,309C 319.039,300.509 320.039,293.342 329.5,287.5 Z"/></g>
<g><path style="opacity:1" fill="#8b7c00" d="M 240.5,335.5 C 216.339,336.498 192.006,336.831 167.5,336.5C 167.5,360.833 167.5,385.167 167.5,409.5C 166.502,385.006 166.169,360.339 166.5,335.5C 191.167,335.5 215.833,335.5 240.5,335.5 Z"/></g>
<g><path style="opacity:1" fill="#867700" d="M 427.5,340.5 C 453.328,339.502 479.328,339.169 505.5,339.5C 505.83,356.009 505.496,372.342 504.5,388.5C 504.5,372.5 504.5,356.5 504.5,340.5C 478.833,340.5 453.167,340.5 427.5,340.5 Z"/></g>
<g><path style="opacity:1" fill="#080601" d="M 125.5,360.5 C 130.408,359.874 134.908,360.874 139,363.5C 142.386,369.056 142.22,374.556 138.5,380C 126.117,385.733 119.617,381.9 119,368.5C 120.305,365.039 122.471,362.372 125.5,360.5 Z"/></g>
<g><path style="opacity:1" fill="#070501" d="M 328.5,369.5 C 338.962,368.609 344.129,373.276 344,383.5C 340.02,392.079 333.853,394.246 325.5,390C 319.432,382.03 320.432,375.197 328.5,369.5 Z"/></g>
<g><path style="opacity:1" fill="#080601" d="M 461.5,369.5 C 472.402,368.245 477.568,372.912 477,383.5C 475.578,389.473 471.745,392.473 465.5,392.5C 457.088,391.026 453.588,386.026 455,377.5C 456.305,374.039 458.471,371.372 461.5,369.5 Z"/></g>
<g><path style="opacity:1" fill="#070501" d="M 126.5,432.5 C 139.259,432.416 143.759,438.416 140,450.5C 131.233,458.206 124.233,456.873 119,446.5C 118.245,443.697 118.578,441.03 120,438.5C 122.063,436.266 124.229,434.266 126.5,432.5 Z"/></g>
<g><path style="opacity:1" fill="#060500" d="M 209.5,432.5 C 221.677,432.214 226.177,437.88 223,449.5C 218.258,455.764 212.425,456.931 205.5,453C 199.256,444.621 200.59,437.788 209.5,432.5 Z"/></g>
<g><path style="opacity:1" fill="#050300" d="M 365.5,432.5 C 376.886,432.048 381.72,437.381 380,448.5C 376.867,454.327 372.034,456.493 365.5,455C 359.092,451.677 356.925,446.511 359,439.5C 360.694,436.642 362.861,434.309 365.5,432.5 Z"/></g>
<g><path style="opacity:1" fill="#050400" d="M 434.5,432.5 C 445.886,432.048 450.72,437.381 449,448.5C 444.174,455.976 438.008,457.309 430.5,452.5C 425.534,444.48 426.867,437.814 434.5,432.5 Z"/></g>
</svg>
