<?xml version="1.0" encoding="utf-8"?>
<!-- Generator: Adobe Illustrator 27.5.0, SVG Export Plug-In . SVG Version: 6.00 Build 0)  -->
<svg version="1.1" xmlns="http://www.w3.org/2000/svg" xmlns:xlink="http://www.w3.org/1999/xlink" x="0px" y="0px"
	 viewBox="0 0 500 500.001" style="enable-background:new 0 0 500 500.001;" xml:space="preserve">
<g id="BACKGROUND">
	<rect style="fill:#F1F2FD;" width="500.001" height="500.001"/>
</g>
<g id="OBJECTS">
	<g>
		
			<path style="fill:#D00652;stroke:#000000;stroke-width:0.4453;stroke-linecap:round;stroke-linejoin:round;stroke-miterlimit:10;" d="
			M175.666,500.001v-116.75c0-32.587,26.417-59.004,59.003-59.004l0,0c32.586,0,59.004,26.417,59.004,59.004v116.75H175.666z"/>
		<polygon style="stroke:#000000;stroke-width:0.4453;stroke-linecap:round;stroke-linejoin:round;stroke-miterlimit:10;" points="
			293.673,442.29 276.025,433.487 293.673,500.001 293.673,500.001 		"/>
		<g>
			
				<path style="fill:#FCB7A2;stroke:#000000;stroke-width:0.4453;stroke-linecap:round;stroke-linejoin:round;stroke-miterlimit:10;" d="
				M254.589,334.976c0,10.913-8.847,19.76-19.761,19.76l0,0c-10.913,0-19.759-8.847-19.759-19.76v-32.379
				c0-10.912,8.847-19.759,19.759-19.759l0,0c10.914,0,19.761,8.847,19.761,19.759V334.976z"/>
			<path style="stroke:#000000;stroke-width:0.4453;stroke-linecap:round;stroke-linejoin:round;stroke-miterlimit:10;" d="
				M234.828,282.838c-10.913,0-19.759,8.847-19.759,19.759v13.024c4.311,2.81,9.454,4.449,14.983,4.449
				c10.727,0,20.011-6.152,24.537-15.115v-2.358C254.589,291.685,245.742,282.838,234.828,282.838z"/>
		</g>
		<g>
			
				<path style="fill:#FCB7A2;stroke:#000000;stroke-width:0.4453;stroke-linecap:round;stroke-linejoin:round;stroke-miterlimit:10;" d="
				M262.146,285.311c0,15.175-12.302,27.476-27.477,27.476l0,0c-15.174,0-27.476-12.301-27.476-27.476v-25.246
				c0-15.175,12.301-27.477,27.476-27.477l0,0c15.174,0,27.477,12.301,27.477,27.477V285.311z"/>
			
				<path style="fill:#363954;stroke:#000000;stroke-width:0.4453;stroke-linecap:round;stroke-linejoin:round;stroke-miterlimit:10;" d="
				M212.966,264.477c0,4.174-7.556,4.65-7.556,10.85l0,0c-4.173,0-7.556-3.383-7.556-7.556v-6.587c0-4.173,3.383-7.556,7.556-7.556
				l0,0c4.173,0,7.556,3.383,7.556,7.556V264.477z"/>
			<g>
				
					<path style="fill:#FCB7A2;stroke:#000000;stroke-width:0.4453;stroke-linecap:round;stroke-linejoin:round;stroke-miterlimit:10;" d="
					M210.386,281.385c-1.496,0.921-3.257,1.453-5.143,1.453c-5.427,0-9.827-4.4-9.827-9.828s4.4-9.827,9.827-9.827
					c3.053,0,5.781,1.392,7.583,3.577"/>
				<path style="fill:#E58673;" d="M208.867,273.275c-0.005-0.094-0.035-0.186-0.091-0.263c-1.258-3.282-3.688-5.827-7.719-6.318
					c-0.569-0.069-0.563,0.821,0,0.891c3.413,0.415,5.514,2.519,6.688,5.241c-1.141,0.012-2.181,0.221-3.081,1.058
					c-0.921,0.855-1.097,2.183-0.917,3.358c0.396,2.586,3.385,2.949,5.473,2.632c0.263,0.12,0.647-0.003,0.648-0.382
					C209.87,277.354,209.561,275.198,208.867,273.275z M204.695,277.346c-0.37-0.973-0.066-2.078,0.598-2.832
					c0.7-0.797,1.803-0.834,2.795-0.8c0.574,1.665,0.84,3.501,0.878,5.303C207.344,279.264,205.368,279.118,204.695,277.346z"/>
			</g>
			
				<path style="fill:#363954;stroke:#000000;stroke-width:0.4453;stroke-linecap:round;stroke-linejoin:round;stroke-miterlimit:10;" d="
				M256.372,264.477c0,4.174,7.555,4.65,7.555,10.85l0,0c4.174,0,7.555-3.383,7.555-7.556v-6.587c0-4.173-3.381-7.556-7.555-7.556
				l0,0c-4.172,0-7.555,3.383-7.555,7.556V264.477z"/>
			<g>
				
					<path style="fill:#FCB7A2;stroke:#000000;stroke-width:0.4453;stroke-linecap:round;stroke-linejoin:round;stroke-miterlimit:10;" d="
					M258.952,281.385c1.496,0.921,3.258,1.453,5.143,1.453c5.428,0,9.828-4.4,9.828-9.828s-4.4-9.827-9.828-9.827
					c-3.049,0-5.775,1.39-7.578,3.571"/>
				<path style="fill:#E58673;" d="M259.472,279.492c0,0.379,0.385,0.502,0.647,0.382c2.088,0.317,5.076-0.046,5.473-2.632
					c0.182-1.176,0.006-2.503-0.916-3.358c-0.9-0.837-1.939-1.046-3.082-1.058c1.174-2.723,3.275-4.826,6.689-5.241
					c0.561-0.069,0.568-0.96,0-0.891c-4.033,0.491-6.461,3.036-7.721,6.318c-0.055,0.076-0.086,0.169-0.09,0.263
					C259.776,275.198,259.468,277.354,259.472,279.492z M260.372,279.017c0.037-1.802,0.305-3.638,0.877-5.303
					c0.992-0.034,2.096,0.003,2.797,0.8c0.662,0.754,0.967,1.859,0.598,2.832C263.97,279.118,261.993,279.264,260.372,279.017z"/>
			</g>
			<g>
				<g>
					<path style="fill:#E26969;" d="M230.052,289.123c-0.091,0-0.183-0.028-0.262-0.086c-0.199-0.144-0.243-0.423-0.098-0.621
						c2.296-3.157,5.682-4.842,10.065-5.008c0.25-0.025,0.453,0.182,0.462,0.428c0.01,0.246-0.182,0.453-0.428,0.462
						c-4.097,0.155-7.252,1.716-9.379,4.642C230.326,289.06,230.19,289.123,230.052,289.123z"/>
				</g>
				<g>
					<path style="fill:#363954;" d="M250.983,256.467c-0.01,0-0.02-0.001-0.03-0.001c-2.625-0.169-4.434-1.179-5.691-3.176
						c-0.131-0.208-0.068-0.483,0.14-0.614c0.209-0.13,0.484-0.068,0.614,0.14c1.107,1.759,2.647,2.61,4.995,2.761
						c0.245,0.016,0.432,0.229,0.416,0.474C251.411,256.285,251.215,256.467,250.983,256.467z"/>
				</g>
				<g>
					<path style="fill:#363954;" d="M219.217,253.35c-0.033,0-0.066-0.004-0.099-0.012c-0.24-0.055-0.39-0.293-0.336-0.533
						c0.502-2.205,1.992-4.183,3.796-5.036c1.365-0.646,2.813-0.624,4.185,0.061c0.22,0.11,0.309,0.378,0.199,0.597
						c-0.111,0.22-0.377,0.308-0.598,0.199c-1.119-0.559-2.296-0.578-3.405-0.053c-1.567,0.741-2.866,2.479-3.309,4.429
						C219.604,253.209,219.42,253.35,219.217,253.35z"/>
				</g>
				<path style="stroke:#000000;stroke-width:0.4453;stroke-linecap:round;stroke-linejoin:round;stroke-miterlimit:10;" d="
					M247.873,261.736c0,1.106-0.598,2.004-1.336,2.004s-1.336-0.897-1.336-2.004c0-1.107,0.598-2.004,1.336-2.004
					S247.873,260.629,247.873,261.736z"/>
				<path style="stroke:#000000;stroke-width:0.4453;stroke-linecap:round;stroke-linejoin:round;stroke-miterlimit:10;" d="
					M225.562,261.736c0,1.106-0.598,2.004-1.336,2.004c-0.738,0-1.336-0.897-1.336-2.004c0-1.107,0.598-2.004,1.336-2.004
					C224.964,259.733,225.562,260.629,225.562,261.736z"/>
				<path style="opacity:0.2;fill:#E26969;" d="M255.079,267.392c0,2.017-1.635,3.651-3.65,3.651c-2.019,0-3.653-1.635-3.653-3.651
					s1.634-3.651,3.653-3.651C253.444,263.74,255.079,265.375,255.079,267.392z"/>
				<path style="opacity:0.2;fill:#E26969;" d="M222.89,267.392c0,2.017-1.635,3.651-3.652,3.651c-2.017,0-3.651-1.635-3.651-3.651
					s1.635-3.651,3.651-3.651C221.255,263.74,222.89,265.375,222.89,267.392z"/>
			</g>
			<g>
				<g>
					<path style="fill:#FFFFFF;" d="M246.537,280.416c-2.645,0-5.165-1.182-7.095-3.326c-0.164-0.184-0.15-0.465,0.033-0.629
						c0.183-0.165,0.464-0.15,0.629,0.033c1.76,1.954,4.044,3.031,6.433,3.031c5.246,0,9.515-5.162,9.515-11.508
						s-4.27-11.508-9.515-11.508c-5.246,0-9.515,5.162-9.515,11.508c0,0.706,0.054,1.413,0.159,2.102
						c0.037,0.242-0.13,0.471-0.373,0.508c-0.247,0.038-0.47-0.131-0.507-0.373c-0.112-0.732-0.169-1.485-0.169-2.236
						c0-6.836,4.668-12.398,10.405-12.398c5.738,0,10.406,5.563,10.406,12.398C256.942,274.854,252.274,280.416,246.537,280.416z"/>
				</g>
				<g>
					<path style="fill:#E58673;" d="M235.932,277.578c-0.744,0-1.565-0.061-2.464-0.183c-0.183-0.024-0.311-0.192-0.286-0.376
						c0.025-0.182,0.191-0.311,0.376-0.285c3.033,0.408,5.089,0.115,6.109-0.875c0.583-0.567,0.824-1.386,0.713-2.433
						c-0.261-2.477-3.925-2.479-3.978-2.485c-0.081-0.017-0.174-0.034-0.237-0.098c-0.063-0.063-0.098-0.148-0.098-0.236v-11.43
						c0-0.184,0.149-0.334,0.334-0.334c0.184,0,0.334,0.15,0.334,0.334v11.104c1.552,0.082,4.068,0.791,4.31,3.074
						c0.133,1.263-0.174,2.266-0.912,2.982C239.283,277.164,237.875,277.578,235.932,277.578z"/>
				</g>
				<g>
					<path style="fill:#FFFFFF;" d="M222.802,280.416c-5.737,0-10.405-5.563-10.405-12.398c0-6.836,4.668-12.398,10.405-12.398
						c5.737,0,10.405,5.563,10.405,12.398C233.207,274.854,228.539,280.416,222.802,280.416z M222.802,256.51
						c-5.246,0-9.515,5.162-9.515,11.508s4.268,11.508,9.515,11.508c5.247,0,9.515-5.162,9.515-11.508
						S228.048,256.51,222.802,256.51z"/>
				</g>
				<g>
					<path style="fill:#FFFFFF;" d="M237.125,268.977c-0.081,0-0.163-0.022-0.237-0.068c-2.02-1.273-4.303-0.002-4.325,0.01
						c-0.213,0.121-0.485,0.047-0.607-0.166c-0.122-0.213-0.049-0.484,0.164-0.607c0.112-0.064,2.763-1.553,5.243,0.01
						c0.207,0.131,0.27,0.406,0.139,0.614C237.418,268.902,237.273,268.977,237.125,268.977z"/>
				</g>
			</g>
		</g>
		<g>
			<g>
				
					<path style="fill:#FCB7A2;stroke:#000000;stroke-width:0.4453;stroke-linecap:round;stroke-linejoin:round;stroke-miterlimit:10;" d="
					M157.046,292.977l20.156-12.096c0,0-9.164-17.047-4.261-27.189c4.904-10.143,28.39-17.124,30.179-14.596
					c1.788,2.525-13.69,9.803-13.69,9.803s19.236,0.399,19.803,4.327c0.565,3.928-18.966,2.648-18.966,2.648
					s17.657,5.443,16.822,8.147c-0.834,2.707-16.944,0.506-16.944,0.506s9.917,10.76,7.165,18.405l-23.514,24.65L157.046,292.977z"
					/>
				<path style="stroke:#000000;stroke-width:0.4453;stroke-linecap:round;stroke-linejoin:round;stroke-miterlimit:10;" d="
					M177.202,280.881l-13.457,8.076l19.401,0.782C183.145,289.739,181.206,286.498,177.202,280.881z"/>
			</g>
			
				<path style="fill:#D00652;stroke:#000000;stroke-width:0.4453;stroke-linecap:round;stroke-linejoin:round;stroke-miterlimit:10;" d="
				M175.666,445.183C79.834,401.542,63.128,335.377,89.299,322.727c26.171-12.652,82.297-43.787,82.297-43.787l15.113,27.626
				l-36.513,38.897l49.442-9.692"/>
			
				<line style="fill:none;stroke:#000000;stroke-width:0.4453;stroke-linecap:round;stroke-linejoin:round;stroke-miterlimit:10;" x1="131.88" y1="364.975" x2="186.708" y2="306.565"/>
			<path style="stroke:#000000;stroke-width:0.4453;stroke-linecap:round;stroke-linejoin:round;stroke-miterlimit:10;" d="
				M78.246,341.724c-1.348,26.094,26.149,71.002,97.42,103.459l3.462-21.97C110.295,409.021,83.93,370.041,78.246,341.724z"/>
		</g>
		<g>
			<g>
				
					<path style="fill:#FCB7A2;stroke:#000000;stroke-width:0.4453;stroke-linecap:round;stroke-linejoin:round;stroke-miterlimit:10;" d="
					M387.063,367.845l2.516-25.688c0,0,17.033,4.563,25.287-3.105c8.254-7.669,8.025-32.17,5.084-33.137
					c-2.939-0.966-5.348,15.967-5.348,15.967s-6.035-18.269-9.955-17.657c-3.92,0.613,3.045,18.907,3.045,18.907
					s-10.393-15.278-12.732-13.685c-2.344,1.592,4.494,16.343,4.494,16.343s-13.371-6.108-23.629,3.784l-14.777,40.467
					L387.063,367.845z"/>
				<path style="stroke:#000000;stroke-width:0.4453;stroke-linecap:round;stroke-linejoin:round;stroke-miterlimit:10;" d="
					M380.259,337.126l7.967,18.867l1.354-13.836C383.269,341.065,380.259,337.126,380.259,337.126z"/>
			</g>
			<g>
				
					<path style="fill:#D00652;stroke:#000000;stroke-width:0.4453;stroke-linecap:round;stroke-linejoin:round;stroke-miterlimit:10;" d="
					M276.025,433.487c67.84,38.451,121.297,28.805,122.254,6.21c1.23-29.042-4.246-85.38-4.246-85.38l-31.355-2.914l-14.809,48.211
					c0,0-62.266-55.222-80.668-65.593"/>
				
					<line style="fill:none;stroke:#000000;stroke-width:0.4453;stroke-linecap:round;stroke-linejoin:round;stroke-miterlimit:10;" x1="341.956" y1="418.867" x2="362.677" y2="351.403"/>
			</g>
		</g>
	</g>
	<g>
		<g>
			<path style="fill:#A1A4D6;" d="M236.164,94.372c8.004,22.365-3.639,46.983-26.004,54.987
				c-22.365,8.003-46.983-3.638-54.987-26.004c-8.003-22.363,3.639-46.982,26.003-54.986
				C203.542,60.365,228.16,72.007,236.164,94.372z"/>
			<path style="fill:#FFFFFF;" d="M230.427,96.424c6.87,19.197-3.123,40.328-22.32,47.198c-19.197,6.87-40.328-3.123-47.198-22.32
				c-6.87-19.195,3.124-40.327,22.32-47.197C202.426,67.235,223.557,77.229,230.427,96.424z"/>
			<path style="fill:#DADDFB;" d="M226.367,97.877c6.068,16.956-2.758,35.62-19.713,41.687
				c-16.954,6.067-35.618-2.759-41.686-19.714c-6.067-16.954,2.76-35.618,19.714-41.685C201.637,72.097,220.3,80.923,226.367,97.877
				z"/>
			<g>
				<path style="fill:#A1A4D6;" d="M205.722,136.869c-0.034,0.013-0.096,0.032-0.133,0.041c-0.235,0.091-0.577,0.206-0.921,0.314
					c-0.573,0.182-1.184-0.136-1.365-0.708c-0.183-0.574,0.147-1.229,0.708-1.366c0.317-0.1,0.634-0.207,0.949-0.319
					c0.566-0.203,1.202,0.086,1.405,0.652C206.568,136.049,206.288,136.667,205.722,136.869z M217.205,129.227
					c-0.367,0.131-0.793,0.06-1.1-0.22c-0.444-0.405-0.476-1.093-0.071-1.538c0.231-0.253,0.458-0.51,0.68-0.772
					c0.385-0.458,1.073-0.515,1.531-0.127c0.46,0.388,0.517,1.073,0.128,1.533c-0.239,0.281-0.483,0.561-0.731,0.833
					C217.518,129.071,217.367,129.169,217.205,129.227z M190.942,138.104c-0.172,0.062-0.365,0.081-0.559,0.047
					c-0.365-0.066-0.73-0.141-1.094-0.22c-0.586-0.129-0.957-0.709-0.827-1.298c0.129-0.583,0.708-0.955,1.296-0.827
					c0.335,0.075,0.673,0.143,1.012,0.202c0.59,0.107,0.984,0.672,0.878,1.265C191.576,137.669,191.296,137.977,190.942,138.104z
					 M224.032,116.059c-0.187,0.067-0.393,0.085-0.602,0.039c-0.586-0.13-0.956-0.711-0.827-1.296
					c0.073-0.335,0.143-0.674,0.205-1.014c0.107-0.589,0.671-0.982,1.266-0.873c0.591,0.107,0.982,0.673,0.873,1.265
					c-0.065,0.367-0.139,0.729-0.219,1.091C224.644,115.648,224.371,115.938,224.032,116.059z M177.524,131.782
					c-0.353,0.126-0.763,0.065-1.07-0.195c-0.282-0.237-0.56-0.481-0.834-0.73c-0.444-0.402-0.476-1.091-0.072-1.536
					c0.401-0.448,1.092-0.476,1.536-0.073c0.254,0.231,0.512,0.457,0.774,0.679c0.46,0.388,0.516,1.074,0.128,1.533
					C177.86,131.612,177.698,131.72,177.524,131.782z M223.368,101.245c-0.015,0.005-0.027,0.01-0.041,0.012
					c-0.573,0.181-1.184-0.138-1.364-0.709c-0.102-0.327-0.211-0.652-0.329-0.977l-0.04-0.112c-0.203-0.566,0.091-1.188,0.658-1.391
					c0.566-0.203,1.188,0.092,1.39,0.658l0.04,0.112c0.127,0.352,0.245,0.704,0.355,1.058
					C224.214,100.453,223.916,101.049,223.368,101.245z M169.055,119.574c-0.566,0.203-1.179-0.063-1.381-0.629l-0.02-0.056
					c-0.119-0.331-0.23-0.663-0.336-0.995c-0.182-0.571,0.081-1.188,0.706-1.366c0.572-0.184,1.183,0.132,1.365,0.705
					c0.099,0.308,0.202,0.616,0.313,0.921C169.904,118.721,169.62,119.371,169.055,119.574z M215.308,88.658
					c-0.366,0.131-0.79,0.062-1.098-0.218c-0.253-0.229-0.513-0.456-0.775-0.675c-0.459-0.389-0.518-1.073-0.133-1.534
					c0.39-0.461,1.073-0.518,1.534-0.132c0.282,0.237,0.562,0.482,0.836,0.729c0.446,0.404,0.478,1.092,0.075,1.538
					C215.622,88.503,215.471,88.6,215.308,88.658z M167.813,104.826c-0.173,0.062-0.365,0.081-0.559,0.047
					c-0.591-0.107-0.984-0.673-0.878-1.266c0.067-0.364,0.139-0.729,0.219-1.094c0.131-0.583,0.709-0.953,1.297-0.828
					c0.587,0.131,0.956,0.711,0.827,1.296c-0.073,0.336-0.141,0.674-0.201,1.012C168.446,104.392,168.166,104.7,167.813,104.826z
					 M202.119,81.87c-0.186,0.067-0.391,0.083-0.596,0.038c-0.337-0.071-0.676-0.139-1.016-0.2
					c-0.592-0.108-0.985-0.673-0.878-1.264c0.107-0.591,0.672-0.983,1.264-0.879c0.364,0.066,0.728,0.139,1.09,0.217
					c0.587,0.126,0.96,0.706,0.833,1.292C202.733,81.456,202.46,81.749,202.119,81.87z M174.123,91.398
					c-0.352,0.125-0.76,0.066-1.068-0.191c-0.46-0.389-0.518-1.073-0.133-1.534c0.239-0.282,0.483-0.562,0.731-0.835
					c0.401-0.443,1.092-0.479,1.537-0.074c0.445,0.403,0.477,1.09,0.074,1.535c-0.23,0.254-0.455,0.513-0.676,0.774
					C174.458,91.225,174.298,91.335,174.123,91.398z M187.307,82.582c-0.013,0.004-0.025,0.009-0.039,0.011
					c-0.298,0.095-0.596,0.198-0.892,0.303c-0.566,0.202-1.23-0.076-1.433-0.643c-0.202-0.566,0.048-1.172,0.615-1.375l0.366,1.024
					l-0.316-1.042c0.356-0.125,0.678-0.238,1.002-0.34c0.571-0.183,1.184,0.133,1.365,0.707
					C188.154,81.787,187.854,82.386,187.307,82.582z"/>
			</g>
			<g>
				<g>
					<path style="fill:#A1A4D6;" d="M197.622,116.438c-0.124-0.064-0.223-0.176-0.268-0.318L187.32,84.63
						c-0.091-0.287,0.067-0.593,0.353-0.684c0.286-0.091,0.592,0.067,0.683,0.353l10.033,31.49c0.091,0.287-0.066,0.592-0.352,0.684
						C197.893,116.519,197.745,116.501,197.622,116.438z"/>
				</g>
				<g>
					<path style="fill:#A1A4D6;" d="M187.575,110.43c-0.311-0.16-0.537-0.466-0.582-0.838c-0.072-0.596,0.357-1.138,0.951-1.207
						l34.292-4.049c0.598-0.07,1.139,0.356,1.208,0.952c0.071,0.597-0.357,1.138-0.952,1.209l-34.29,4.048
						C187.976,110.572,187.761,110.527,187.575,110.43z"/>
				</g>
			</g>
		</g>
		<g>
			<path style="fill:#A1A4D6;" d="M330.74,145.718c-3.248,12.471-32.902,33.753-32.902,33.753s-15.506-33.044-12.259-45.515
				c3.249-12.471,15.99-19.948,28.461-16.7C326.511,120.505,333.987,133.248,330.74,145.718z"/>
			<path style="fill:#DADDFB;" d="M321.188,143.23c-1.874,7.195-9.227,11.508-16.421,9.635c-7.194-1.874-11.508-9.226-9.634-16.42
				c1.873-7.195,9.225-11.508,16.42-9.635C318.747,128.684,323.061,136.036,321.188,143.23z"/>
		</g>
		<g>
			<path style="fill:#DADDFB;" d="M477.891,195.671c0,29.824-26.189,54.002-58.496,54.002c-32.308,0-58.498-24.178-58.498-54.002
				c0-29.825,26.19-54.002,58.498-54.002C451.701,141.669,477.891,165.846,477.891,195.671z"/>
			<path style="fill:#DADDFB;" d="M347.413,216.879c-6.608,2.145-13.706-1.474-15.853-8.082c-2.146-6.609,1.472-13.707,8.081-15.854
				c6.608-2.146,13.707,1.472,15.853,8.082C357.641,207.635,354.023,214.732,347.413,216.879z"/>
			<path style="fill:#DADDFB;" d="M328.082,228.714c-3.517,1.143-7.294-0.784-8.436-4.299c-1.142-3.517,0.783-7.294,4.3-8.436
				c3.518-1.142,7.294,0.784,8.436,4.3C333.525,223.795,331.6,227.572,328.082,228.714z"/>
			<path style="fill:#DADDFB;" d="M314.181,239.293c-2.354,0.765-4.882-0.524-5.646-2.877c-0.764-2.354,0.524-4.882,2.878-5.646
				c2.354-0.764,4.882,0.524,5.646,2.878C317.822,236.001,316.534,238.529,314.181,239.293z"/>
			<path style="fill:#A1A4D6;" d="M372.389,212.98c4.556,10.598,14.837,15.107,25.441,15.193c8.446,2.794,20.452,2.319,29.043-2.123
				c3.336-0.732,6.487-1.764,9.263-3.025c1.902-0.864,3.728-1.948,5.402-3.219c2.624,0.171,5.243,0.188,7.804,0.002
				c7.046-0.512,14.356-2.28,19.302-7.659c2.755-2.996,3.739-6.742,1.25-10.185c-2.921-4.039-9.002-5.816-13.511-7.143
				c-3.547-1.044-7.18-1.822-10.839-2.44c0.404-0.45,0.786-0.916,1.112-1.417c3.02-4.636,0.322-7.547-3.397-8.999
				c-1.55-2.245-3.778-4.096-6.206-5.329c-6.266-3.183-14.241-2.651-21.055-1.23c-5.41-1.225-11.172-1.246-16.274-0.249
				c-6.561,1.282-12.349,4.874-16.853,9.753c-3.472,1.461-6.569,3.89-8.948,6.938C369.188,197.919,369.485,206.23,372.389,212.98z
				 M390.255,224.904c-6.684-1.506-12.208-6.313-15.149-12.37c-0.653-9.427,3.284-18.655,9.627-25.542
				c2.565-0.899,5.349-1.252,8.146-0.919c0.908,0.108,1.786,0.299,2.636,0.555c-1.758,2.549-2.493,5.502-1.065,8.012
				c-3.898,3.396-6.971,8.025-6.324,13.328c0.119,0.982,0.329,1.941,0.618,2.852c0.105,1.952,0.908,4.063,2.663,6.334
				c3.054,3.955,7.237,6.596,11.951,8.184C398.979,225.969,394.514,225.864,390.255,224.904z M414.84,177.776
				c4.101,0.808,8.023,2.489,11.201,4.992c-1.867,0.595-3.732,1.323-5.517,2.182c-5.688,0.086-11.383,1.469-16.717,3.897
				c-1.393-1.284-2.976-2.37-4.673-3.232c1.201-1.204,2.564-2.263,3.825-3.036C406.557,180.371,410.623,178.771,414.84,177.776z
				 M441.444,183.303c1.67,2.387,2.302,5.313,1.142,8.612c-0.202-0.03-0.402-0.059-0.605-0.087
				c-0.613-0.463-1.233-0.899-1.853-1.301c-2.209-1.433-4.502-2.566-6.848-3.433c-0.712-1.262-1.545-2.419-2.476-3.48
				C434.275,182.831,437.95,182.622,441.444,183.303z M440.169,217.836c-1.476-0.149-2.945-0.351-4.394-0.601
				c1.447-3.799,0.898-8.311-1.372-11.667c0.302-0.756,0.567-1.523,0.789-2.302c2.937-1.959,5.702-4.343,7.631-7.214
				c5.295,5.018,6.956,11.834-0.025,19.369C441.999,216.283,441.113,217.085,440.169,217.836z M425.846,223.86
				c-0.348,0.186-0.713,0.358-1.074,0.534c-3.571,0.64-7.276,0.832-10.897,0.557c4.399-1.877,8.811-4.667,12.53-8.132
				c1.894,0.646,3.841,1.195,5.827,1.644C430.719,220.752,428.35,222.525,425.846,223.86z M403.279,191.809
				c0.945,1.137,1.734,2.393,2.343,3.727c-1.326,0.487-2.731,1.049-4.149,1.693c-0.578-0.192-1.154-0.386-1.716-0.606
				c-0.951-0.372-1.703-0.8-2.297-1.269C399.223,193.98,401.201,192.807,403.279,191.809z M431.602,189.582
				c0.199,0.418,0.386,0.847,0.555,1.285c-6.74-0.201-13.224,0.713-19.765,2.51c1.915-2.39,4.826-4.365,7.875-5.918
				C423.873,187.525,427.84,188.273,431.602,189.582z M390.784,209.629c0.406-4.261,5.513-7.643,11.5-10.163
				c0.148,0.038,0.294,0.072,0.441,0.108c-2.962,1.369-5.403,3.461-6.038,6.499c-0.775,3.709,2.401,5.362,6.064,6.042
				c-2.409,2.567-5.765,4.545-8.827,2.602C392.077,213.544,391.122,211.687,390.784,209.629z M433.109,194.299
				c0.135,0.776,0.211,1.546,0.245,2.311c-3.012,0.961-6.219,1.694-9.501,2.16c-3.818-1.138-7.92-1.503-11.774-1.348
				c-0.556,0.022-1.148,0.072-1.758,0.139c0.07-0.334,0.162-0.663,0.272-0.986c4.314-1.253,8.188-2.063,10.198-2.439
				c3.985-0.745,8.039-0.963,12.098-0.819C432.966,193.643,433.051,193.963,433.109,194.299z M435.624,193.471
				c1.512,0.111,3.022,0.266,4.527,0.46c-0.89,0.428-1.789,0.802-2.61,1.145c-0.524,0.221-1.066,0.425-1.608,0.631
				C435.868,194.967,435.771,194.222,435.624,193.471z M406.567,198.237c-0.212,0.054-0.421,0.112-0.632,0.171
				c-0.2-0.04-0.399-0.086-0.6-0.13c0.38-0.137,0.761-0.271,1.141-0.402C406.51,197.996,406.537,198.117,406.567,198.237z
				 M400.151,203.904c1.822-1.806,4.189-2.925,6.793-3.536c0.289,2.832-0.233,5.773-1.785,8.51
				c-0.252,0.443-0.551,0.912-0.888,1.386C399.97,209.594,396.198,207.823,400.151,203.904z M409.194,203.924
				c0.882,2.402,2.466,4.432,4.424,6.145c-0.759,0.144-1.521,0.276-2.29,0.399c-0.869,0.138-2.522,0.194-4.357,0.083
				C408.119,208.513,408.87,206.24,409.194,203.924z M410.379,201.259c-0.053-0.223-0.088-0.443-0.123-0.663
				c0.505,0.038,1.004,0.072,1.482,0.105c3.022,0.208,6.145,0.289,9.242,0.135c1.225,0.298,2.389,0.639,3.439,1.012
				c1.776,0.631,3.483,1.515,4.951,2.644c-2.854,1.453-5.794,2.639-8.473,3.626c-1.617,0.596-3.245,1.061-4.892,1.445
				C413.295,207.395,411.194,204.678,410.379,201.259z M430.877,205.83c0.137,0.141,0.265,0.288,0.393,0.434
				c-1.45,3.044-3.549,5.837-5.974,8.258c-2.481-0.898-4.978-2.035-7.219-3.471C422.533,209.83,426.839,207.982,430.877,205.83z
				 M432.054,203.02c-1.41-1.17-2.971-2.129-4.629-2.901c0.068-0.013,0.138-0.021,0.207-0.034c1.743-0.33,3.697-0.747,5.689-1.289
				c-0.098,1.322-0.335,2.62-0.693,3.887C432.439,202.798,432.245,202.907,432.054,203.02z M436.014,197.979
				c1.399-0.472,2.776-1.02,4.078-1.662c-1.213,1.551-2.684,2.938-4.306,4.19C435.911,199.673,435.991,198.832,436.014,197.979z
				 M434.982,191.016c-0.01-0.03-0.018-0.061-0.026-0.091c0.076,0.035,0.152,0.069,0.229,0.105
				C435.118,191.025,435.051,191.02,434.982,191.016z M409.766,194.146c-0.571,0.177-1.144,0.36-1.717,0.549
				c-0.621-1.42-1.453-2.73-2.431-3.926c3.205-1.309,6.529-2.244,9.564-2.879c0.151-0.031,0.307-0.059,0.46-0.086
				C413.122,189.599,411.044,191.721,409.766,194.146z M396.062,196.525c0.903,0.756,1.935,1.361,3.046,1.855
				c-3.123,1.626-6.079,3.635-8.033,6.027c0.383-1.535,0.985-2.967,1.717-4.094C393.696,198.921,394.809,197.664,396.062,196.525z
				 M400.596,216.792c2.056-1.037,3.768-2.538,5.12-4.32c2.12,0.136,4.097,0.044,5.263-0.071c1.566-0.154,3.121-0.419,4.663-0.752
				c2.564,1.795,5.488,3.176,8.2,4.247c-1.587,1.42-3.275,2.689-4.988,3.768c-3.126,1.97-6.588,3.506-10.202,4.54
				c-5.161-1.095-9.892-3.246-13.487-6.52C396.771,218.028,398.596,217.801,400.596,216.792z M430.544,216.125
				c-0.865-0.218-1.765-0.469-2.678-0.746c1.97-2.038,3.693-4.272,5.04-6.666c0.6,1.243,0.961,2.624,0.987,4.153
				c0.025,1.41-0.249,2.692-0.736,3.862C432.277,216.541,431.402,216.341,430.544,216.125z M429.223,185.876
				c-1.24-0.291-2.491-0.514-3.746-0.667c0.842-0.307,1.651-0.577,2.413-0.811C428.36,184.866,428.802,185.362,429.223,185.876z
				 M401.502,189.971c-1.186,0.621-2.353,1.291-3.492,2.012c-0.69,0.437-1.381,0.916-2.058,1.429
				c-0.715-1.867,0.126-4.03,1.621-6.01C399.015,188.067,400.334,188.941,401.502,189.971z M402.402,227.939
				c2.2-0.239,4.381-0.658,6.493-1.244c2.452,0.403,4.973,0.578,7.498,0.553C411.811,228.261,406.924,228.546,402.402,227.939z
				 M432.196,222.318c0.821-0.782,1.573-1.623,2.227-2.533c0.182-0.253,0.343-0.514,0.5-0.779c0.987,0.176,1.978,0.328,2.974,0.454
				C436.146,220.578,434.226,221.528,432.196,222.318z M468.226,203.4c4.855,5.811-6.453,11.7-10.521,12.989
				c-4.488,1.421-9.308,1.878-14.116,1.688c3.203-3.009,5.566-6.827,6.287-11.285c0.756-4.662-1.462-8.796-4.608-12.066
				c2.436,0.438,4.853,0.947,7.233,1.498C457.773,197.443,464.589,199.047,468.226,203.4z M445.411,188.57
				c0.011-1.201-0.195-2.358-0.564-3.461C445.547,186.066,445.729,187.292,445.411,188.57z M428.563,176.686
				c3.838,0.299,7.895,1.84,10.76,4.299c-0.561-0.071-1.108-0.115-1.63-0.129c-2.442-0.068-5.435,0.29-8.564,1.045
				c-2.424-2.215-5.333-3.898-8.489-5.102C423.301,176.525,425.967,176.483,428.563,176.686z M409.624,177.114
				c-4.687,1.592-9.206,3.988-12.54,7.581c-0.886-0.338-1.791-0.619-2.706-0.833c-1.996-0.469-3.987-0.58-5.926-0.387
				C394.523,178.518,402.014,176.662,409.624,177.114z M378.527,190.632c-2.936,4.748-4.842,10.144-5.417,15.601
				c-0.129-0.791-0.231-1.587-0.271-2.39C372.572,198.524,374.884,193.863,378.527,190.632z"/>
		</g>
		<g>
			<g>
				<path style="fill:#DADDFB;" d="M240.105,162.787c-1.554-0.279-2.042-2.191-1.467-5.736c0.314-1.933,0.704-3.406,1.173-4.42
					c0.467-1.012,1.211-1.85,2.227-2.511c1.017-0.662,2.183-0.886,3.498-0.672c1.316,0.213,2.383,0.642,3.203,1.284
					c0.818,0.644,1.413,1.354,1.782,2.13c0.371,0.777,0.599,1.75,0.685,2.922c0.162,1.708,0.028,3.898-0.405,6.57
					c-0.435,2.672-1.148,5.374-2.143,8.107c-0.941,2.741-1.906,5.12-2.896,7.136c-2.581,5.369-4.52,11.959-5.814,19.769
					c-0.432,2.659-0.717,4.501-0.855,5.525c-0.968-0.157-1.531-0.206-1.691-0.15c-0.161,0.057-0.296,0.076-0.402,0.059
					c-1.021-0.166-1.592-0.893-1.714-2.18c0.985-6.069,2.88-12.859,5.685-20.369c2.804-7.51,4.614-13.776,5.43-18.797
					c0.815-5.022,0.403-7.666-1.233-7.932c-1.047-0.17-1.77,0.967-2.167,3.41c-0.069,0.43-0.125,1.951-0.163,4.563
					c-0.039,0.242-0.43,0.53-1.172,0.864C240.92,162.692,240.4,162.835,240.105,162.787z M239.342,209.505
					c-0.341,2.095-1.625,2.961-3.854,2.599c-0.78-0.126-1.407-0.553-1.881-1.277c-0.477-0.724-0.649-1.476-0.523-2.255
					c0.126-0.778,0.58-1.456,1.362-2.032c0.782-0.576,1.559-0.801,2.322-0.677c0.766,0.124,1.413,0.595,1.942,1.41
					C239.24,208.09,239.45,208.834,239.342,209.505z"/>
			</g>
			<g>
				<path style="fill:#A1A4D6;" d="M261.602,178.241c-1.052-0.542-0.979-2.02,0.214-4.432c0.651-1.315,1.257-2.284,1.816-2.907
					c0.557-0.622,1.274-1.057,2.148-1.307c0.875-0.249,1.759-0.153,2.653,0.29c0.896,0.443,1.566,0.986,2.012,1.628
					c0.442,0.64,0.713,1.28,0.808,1.917c0.093,0.638,0.041,1.386-0.156,2.244c-0.26,1.259-0.839,2.797-1.739,4.616
					c-0.9,1.818-2.007,3.596-3.323,5.333c-1.277,1.755-2.493,3.247-3.646,4.473c-3.033,3.275-5.875,7.569-8.525,12.877
					c-0.896,1.809-1.506,3.064-1.831,3.769c-0.659-0.326-1.052-0.487-1.18-0.48c-0.126,0.004-0.227-0.012-0.301-0.048
					c-0.693-0.343-0.942-0.989-0.746-1.938c2.045-4.13,4.9-8.575,8.565-13.334c3.664-4.761,6.344-8.849,8.035-12.266
					c1.691-3.417,1.978-5.402,0.864-5.954c-0.713-0.354-1.482,0.302-2.304,1.965c-0.145,0.292-0.519,1.37-1.123,3.232
					c-0.081,0.164-0.425,0.284-1.03,0.36C262.207,178.354,261.804,178.341,261.602,178.241z M250.751,211.534
					c-0.705,1.424-1.817,1.762-3.334,1.01c-0.529-0.261-0.885-0.705-1.064-1.329c-0.182-0.623-0.141-1.2,0.122-1.73
					c0.263-0.53,0.737-0.915,1.426-1.155c0.687-0.239,1.29-0.229,1.812,0.028c0.521,0.257,0.881,0.737,1.079,1.438
					C250.991,210.498,250.977,211.078,250.751,211.534z"/>
			</g>
		</g>
		<g>
			<path style="fill:#DADDFB;" d="M142.328,203.503c0,6.949,5.632,12.582,12.581,12.582c6.95,0,12.582-5.633,12.582-12.582
				c0-6.949-5.632-12.582-12.582-12.582C147.96,190.92,142.328,196.554,142.328,203.503z"/>
			<circle style="fill:#DADDFB;" cx="173.555" cy="220.413" r="6.695"/>
			<ellipse style="fill:#DADDFB;" cx="88.331" cy="162.865" rx="58.497" ry="54.002"/>
			<g>
				<path style="fill:#A1A4D6;" d="M123.49,187.675l3.268,3.336c2.721-2.668,4.813-5.995,6.045-9.622l-4.4-1.495
					c0.431-1.271,0.723-2.553,0.891-3.836l4.605,0.605c0.501-3.784,0.089-7.695-1.191-11.309l-4.397,1.551
					c-1.028-2.911-2.732-5.563-4.989-7.727l3.231-3.37c-2.594-2.486-5.643-4.335-9.098-5.509l-0.7-0.225l-1.374,4.461
					c-3.072-0.935-6.205-1.107-9.182-0.586l-0.799-4.581c-3.757,0.657-7.367,2.21-10.433,4.494l2.779,3.734
					c-2.442,1.815-4.472,4.214-5.891,7.069l-4.177-2.081c-0.485,0.976-0.913,1.999-1.267,3.041
					c-0.882,2.597-1.321,5.296-1.304,8.024l4.666-0.027c0.017,3.143,0.779,6.2,2.18,8.938l-4.145,2.127
					c1.748,3.409,4.304,6.398,7.388,8.637l2.733-3.76c1.577,1.147,3.35,2.078,5.292,2.738c1.063,0.361,2.138,0.605,3.208,0.779
					l-0.754,4.608c3.771,0.617,7.695,0.329,11.342-0.833l-1.415-4.448C118.552,191.471,121.259,189.857,123.49,187.675z
					 M105.729,184.919c-6.302-2.141-9.675-8.986-7.534-15.287c2.141-6.302,8.985-9.676,15.288-7.535
					c6.303,2.143,9.675,8.988,7.535,15.29C118.877,183.686,112.033,187.061,105.729,184.919z"/>
				<path style="fill:#FFFFFF;" d="M66.015,166.224l0.273,3.225c2.634-0.226,5.219-1.079,7.479-2.473l-1.693-2.742
					c0.794-0.487,1.515-1.044,2.171-1.656l2.193,2.356c1.94-1.801,3.445-4.072,4.357-6.569l-3.037-1.112
					c0.739-2.009,0.998-4.179,0.747-6.332l3.216-0.374c-0.292-2.476-1.104-4.81-2.432-6.961l-0.273-0.43l-2.705,1.778
					c-1.23-1.858-2.827-3.331-4.647-4.366l1.597-2.801c-2.299-1.308-4.914-2.072-7.562-2.205l-0.164,3.224
					c-2.106-0.109-4.249,0.277-6.268,1.175l-1.313-2.957c-0.688,0.309-1.369,0.665-2.02,1.067c-1.617,0.999-3.045,2.247-4.241,3.711
					l2.506,2.047c-1.378,1.686-2.319,3.658-2.781,5.739l-3.153-0.693c-0.573,2.593-0.524,5.318,0.134,7.876l3.119-0.803
					c0.339,1.31,0.874,2.591,1.62,3.801c0.41,0.664,0.876,1.267,1.371,1.831l-2.434,2.131c1.742,1.996,3.966,3.574,6.426,4.562
					l1.208-3.002C61.701,166.073,63.86,166.404,66.015,166.224z M57.741,156.91c-2.425-3.93-1.204-9.075,2.722-11.499
					c3.925-2.422,9.072-1.203,11.497,2.724c2.422,3.927,1.205,9.075-2.723,11.497C65.309,162.054,60.165,160.836,57.741,156.91z"/>
			</g>
		</g>
	</g>
</g>
</svg>
